<svg width="32" height="32" viewBox="0 0 32 32" fill="none" xmlns="http://www.w3.org/2000/svg">
<g clip-path="url(#clip0_45_1822)">
<path d="M9.60017 6.40011C9.60017 4.70269 10.2745 3.0748 11.4747 1.87455C12.675 0.674295 14.3029 0 16.0003 0C17.6977 0 19.3256 0.674295 20.5258 1.87455C21.7261 3.0748 22.4004 4.70269 22.4004 6.40011V17.8222C23.4866 19.0538 24.1944 20.5728 24.4388 22.1968C24.6831 23.8207 24.4537 25.4807 23.778 26.9775C23.1023 28.4743 22.0091 29.7444 20.6295 30.6352C19.2499 31.5261 17.6425 32 16.0003 32C14.358 32 12.7507 31.5261 11.3711 30.6352C9.99146 29.7444 8.89823 28.4743 8.22255 26.9775C7.54686 25.4807 7.31744 23.8207 7.5618 22.1968C7.80616 20.5728 8.51393 19.0538 9.60017 17.8222V6.40011ZM16.0003 3.20005C15.1516 3.20005 14.3376 3.5372 13.7375 4.13733C13.1374 4.73745 12.8002 5.5514 12.8002 6.40011V19.147L12.3095 19.6163C11.5414 20.3531 11.0113 21.3028 10.7873 22.3433C10.5634 23.3838 10.6559 24.4675 11.0529 25.455C11.4499 26.4425 12.1333 27.2886 13.0152 27.8845C13.897 28.4805 14.937 28.7989 16.0013 28.7989C17.0657 28.7989 18.1057 28.4805 18.9875 27.8845C19.8694 27.2886 20.5528 26.4425 20.9498 25.455C21.3468 24.4675 21.4393 23.3838 21.2154 22.3433C20.9914 21.3028 20.4613 20.3531 19.6931 19.6163L19.2003 19.1491V6.40011C19.2003 5.5514 18.8632 4.73745 18.2631 4.13733C17.6629 3.5372 16.849 3.20005 16.0003 3.20005ZM17.067 11.7335C17.067 11.4506 16.9546 11.1793 16.7545 10.9793C16.5545 10.7792 16.2832 10.6668 16.0003 10.6668C15.7174 10.6668 15.4461 10.7792 15.246 10.9793C15.046 11.1793 14.9336 11.4506 14.9336 11.7335V20.4483C14.2219 20.7 13.622 21.1951 13.2401 21.8462C12.8581 22.4973 12.7187 23.2625 12.8463 24.0065C12.974 24.7505 13.3605 25.4254 13.9377 25.912C14.5148 26.3986 15.2454 26.6654 16.0003 26.6654C16.7552 26.6654 17.4857 26.3986 18.0629 25.912C18.64 25.4254 19.0266 24.7505 19.1542 24.0065C19.2819 23.2625 19.1424 22.4973 18.7605 21.8462C18.3785 21.1951 17.7787 20.7 17.067 20.4483V11.7335Z" fill="#212121" fill-opacity="0.6"/>
</g>
<defs>
<clipPath id="clip0_45_1822">
<rect width="32" height="32" fill="white"/>
</clipPath>
</defs>
</svg>
