<svg width="19" height="19" viewBox="0 0 19 19" fill="none" xmlns="http://www.w3.org/2000/svg">
<path d="M9.39145 12.9134C9.06729 12.9134 8.80448 12.6506 8.80448 12.3264V10.7612H7.23925C6.91508 10.7612 6.65228 10.4984 6.65228 10.1742C6.65228 9.85003 6.91508 9.58722 7.23925 9.58722H8.80448V8.02196C8.80448 7.6978 9.06729 7.435 9.39145 7.435C9.7157 7.435 9.97843 7.6978 9.97843 8.02196V9.58722H11.5437C11.8679 9.58722 12.1307 9.85003 12.1307 10.1742C12.1307 10.4984 11.8679 10.7612 11.5437 10.7612H9.97843V12.3264C9.97843 12.6506 9.7157 12.9134 9.39145 12.9134Z" fill="black"/>
<path fill-rule="evenodd" clip-rule="evenodd" d="M15.1941 5.01997C15.4876 5.31351 15.6525 5.71164 15.6525 6.12677V15.6526C15.6525 16.5171 14.9518 17.2179 14.0873 17.2179H4.69575C3.83128 17.2179 3.13049 16.5171 3.13049 15.6526V3.13053C3.13049 2.26606 3.83128 1.56527 4.69575 1.56527H11.0911C11.5062 1.56527 11.9044 1.73018 12.1978 2.02373L15.1941 5.01997ZM14.4786 6.12677V15.6526C14.4786 15.8688 14.3034 16.0439 14.0873 16.0439H4.69575C4.47964 16.0439 4.30444 15.8688 4.30444 15.6526V3.13053C4.30444 2.91441 4.47964 2.73921 4.69575 2.73921H11.0911C11.1948 2.73921 11.2944 2.78044 11.3678 2.85383L14.364 5.85007C14.4374 5.92346 14.4786 6.02299 14.4786 6.12677Z" fill="black"/>
</svg>
